<?xml version="1.0" encoding="UTF-8" standalone="no"?>
<!-- Created with Inkscape (http://www.inkscape.org/) -->

<svg
   xmlns:osb="http://www.openswatchbook.org/uri/2009/osb"
   xmlns:dc="http://purl.org/dc/elements/1.1/"
   xmlns:cc="http://creativecommons.org/ns#"
   xmlns:rdf="http://www.w3.org/1999/02/22-rdf-syntax-ns#"
   xmlns:svg="http://www.w3.org/2000/svg"
   xmlns="http://www.w3.org/2000/svg"
   xmlns:xlink="http://www.w3.org/1999/xlink"
   xmlns:sodipodi="http://sodipodi.sourceforge.net/DTD/sodipodi-0.dtd"
   xmlns:inkscape="http://www.inkscape.org/namespaces/inkscape"
   width="16px"
   height="16px"
   viewBox="0 0 16 16"
   version="1.1"
   id="SVGRoot"
   inkscape:version="0.92.4 (5da689c313, 2019-01-14)"
   sodipodi:docname="Vacummator.svg"
   inkscape:export-filename="C:\Users\Riley\Documents\Programs\Unity\Placeholder\Assets\Sprites\Vacummator.png"
   inkscape:export-xdpi="2896.064"
   inkscape:export-ydpi="2896.064">
  <defs
     id="defs815">
    <inkscape:path-effect
       effect="spiro"
       id="path-effect1399"
       is_visible="true" />
    <inkscape:path-effect
       effect="spiro"
       id="path-effect1395"
       is_visible="true" />
    <inkscape:path-effect
       effect="spiro"
       id="path-effect1391"
       is_visible="true" />
    <inkscape:path-effect
       effect="spiro"
       id="path-effect1387"
       is_visible="true" />
    <linearGradient
       id="linearGradient1381"
       osb:paint="solid">
      <stop
         style="stop-color:#000000;stop-opacity:1;"
         offset="0"
         id="stop1379" />
    </linearGradient>
    <linearGradient
       inkscape:collect="always"
       xlink:href="#linearGradient1381"
       id="linearGradient1383"
       x1="-0.21506638"
       y1="8.2225474"
       x2="16.445256"
       y2="8.2225474"
       gradientUnits="userSpaceOnUse"
       gradientTransform="matrix(0.54528118,0,0,0.54528118,2.4822661,3.5621196)" />
  </defs>
  <sodipodi:namedview
     id="base"
     pagecolor="#ffffff"
     bordercolor="#666666"
     borderopacity="1.0"
     inkscape:pageopacity="0.0"
     inkscape:pageshadow="2"
     inkscape:zoom="64"
     inkscape:cx="5.4341185"
     inkscape:cy="8.0455765"
     inkscape:document-units="px"
     inkscape:current-layer="layer1"
     showgrid="false"
     inkscape:window-width="3840"
     inkscape:window-height="2035"
     inkscape:window-x="-13"
     inkscape:window-y="-13"
     inkscape:window-maximized="1"
     inkscape:grid-bbox="true" />
  <metadata
     id="metadata818">
    <rdf:RDF>
      <cc:Work
         rdf:about="">
        <dc:format>image/svg+xml</dc:format>
        <dc:type
           rdf:resource="http://purl.org/dc/dcmitype/StillImage" />
        <dc:title></dc:title>
      </cc:Work>
    </rdf:RDF>
  </metadata>
  <g
     inkscape:label="Layer 1"
     inkscape:groupmode="layer"
     id="layer1">
    <path
       style="fill:none;stroke:#000000;stroke-width:0;stroke-linecap:butt;stroke-linejoin:miter;stroke-miterlimit:4;stroke-dasharray:none;stroke-opacity:1"
       d="M 10.247928,11.913095 10.163584,11.895022 3.6209085,11.828752 5.0306562,9.0634772 3.7173015,6.8283646 5.5367194,5.6535748 4.6209859,4.9426764 4.6089368,4.135385 6.2958144,3.7980095 7.8622007,3.7377638 8.7899834,4.2558763 8.8020341,5.0571431 7.7899076,5.8764836 10.067192,6.918733 8.3080202,9.069502 c 0,0 3.8798188,5.687187 1.9399078,2.843593 z"
       id="path1373"
       inkscape:connector-curvature="0" />
    <path
       style="fill:none;stroke:url(#linearGradient1383);stroke-width:0.54613984;stroke-linecap:butt;stroke-linejoin:bevel;stroke-miterlimit:4;stroke-dasharray:none;stroke-opacity:1"
       d="M 10.006945,11.949243 3.8739401,11.901046 5.2957369,9.2743369 2.8859118,7.7922946 5.3017615,6.3102522 4.2956595,5.5150098 5.0246316,4.5390307 6.1692985,4.1414095 8.7899834,4.2558763 10.025019,4.9246027 9.9527241,5.8041889 9.3080959,6.3463995 10.16387,6.8093094 11.000998,7.2621331 9.2358009,9.057453 Z"
       id="path1377"
       inkscape:connector-curvature="0"
       sodipodi:nodetypes="cccccccccccccccc" />
    <path
       style="fill:none;stroke:#000000;stroke-width:0.09448819;stroke-linecap:butt;stroke-linejoin:miter;stroke-miterlimit:4;stroke-dasharray:none;stroke-opacity:1"
       d="m 7.0268736,2.6091653 c 0.079291,-0.045241 0.1707289,-0.068957 0.2620136,-0.067956 0.091285,0.001 0.1821805,0.026714 0.2604612,0.073683 0.078281,0.046968 0.1437439,0.1150699 0.1875842,0.1951444 0.04384,0.080075 0.065944,0.1719149 0.063339,0.2631679 C 7.7961777,3.2166002 7.7289708,3.357431 7.6188399,3.449357 7.508709,3.541283 7.3572333,3.58224 7.2161116,3.5564739 7.07499,3.5307078 6.9471785,3.4381396 6.8803435,3.3112054 6.8135086,3.1842711 6.8097532,3.0255798 6.872194,2.8964274 c 0.025405,-0.052549 0.061207,-0.1002415 0.1057243,-0.1379909 0.044517,-0.037749 0.097797,-0.06541 0.1546981,-0.078414 0.056901,-0.013004 0.1173547,-0.01115 0.1728425,0.00696 0.055488,0.018108 0.1057628,0.052627 0.1412594,0.098961 0.029028,0.03789 0.048012,0.083403 0.054513,0.1306897 0.0065,0.047286 5.016e-4,0.096234 -0.017225,0.1405514 -0.017727,0.044317 -0.04714,0.083899 -0.084459,0.1136581 -0.037319,0.029759 -0.082454,0.049624 -0.1296054,0.057043"
       id="path1385"
       inkscape:connector-curvature="0"
       inkscape:path-effect="#path-effect1387"
       inkscape:original-d="M 7.0268736,2.6091653 C 7.2783073,2.7628449 7.5434723,2.9175245 7.8002717,3.0732041 8.057071,3.2288837 7.1825533,2.954353 6.872194,2.8964274 6.5618348,2.8385019 7.2562102,2.8217705 7.4467183,2.785942 7.6372264,2.7501135 7.3298672,3.0795698 7.2699416,3.2278837"
       transform="matrix(0.54528118,0,0,0.54528118,2.4822661,3.5621196)" />
    <path
       style="fill:none;stroke:#000000;stroke-width:0.09448819;stroke-linecap:butt;stroke-linejoin:miter;stroke-miterlimit:4;stroke-dasharray:none;stroke-opacity:1"
       d="m 10.661844,2.5649711 c -0.18095,0.027132 -0.348063,0.1358772 -0.446162,0.2903302 -0.0981,0.154453 -0.125485,0.351943 -0.07312,0.5272621 0.03498,0.1171159 0.104811,0.2243207 0.200884,0.2998844 0.09607,0.075564 0.218377,0.1184025 0.340543,0.1144982 0.122167,-0.0039 0.243022,-0.055575 0.32688,-0.1445 0.08386,-0.088925 0.128557,-0.214698 0.115013,-0.3361739 -0.0077,-0.068922 -0.03352,-0.1357385 -0.07421,-0.191899 -0.04068,-0.056161 -0.09612,-0.1015342 -0.159217,-0.1303144 -0.06309,-0.02878 -0.133701,-0.0409 -0.202782,-0.034808 -0.06908,0.00609 -0.136475,0.030381 -0.19356,0.069759"
       id="path1389"
       inkscape:connector-curvature="0"
       inkscape:path-effect="#path-effect1391"
       inkscape:original-d="M 10.661844,2.5649711 C 10.489751,2.8365019 10.316657,3.1090326 10.142563,3.3825634 9.9684691,3.6560941 10.79911,3.3373692 11.125883,3.3162721 11.452657,3.295175 10.707039,3.123764 10.496116,3.02901"
       transform="matrix(0.54528118,0,0,0.54528118,2.4822661,3.5621196)" />
    <path
       style="fill:none;stroke:#000000;stroke-width:0.09448819;stroke-linecap:butt;stroke-linejoin:miter;stroke-miterlimit:4;stroke-dasharray:none;stroke-opacity:1"
       d="m 7.0158251,4.0896701 c 0.1099616,0.2281827 0.2867229,0.4236802 0.5027113,0.5559975 0.2159885,0.1323172 0.4704448,0.2009891 0.723677,0.1953035 0.437431,-0.00982 0.837422,-0.2314268 1.2294977,-0.4256406 0.1960378,-0.097107 0.3960035,-0.189096 0.6071039,-0.2465186 0.2111,-0.057422 0.435092,-0.079293 0.649321,-0.034948 0.240924,0.049871 0.463327,0.1849019 0.618718,0.3756505"
       id="path1393"
       inkscape:connector-curvature="0"
       inkscape:path-effect="#path-effect1395"
       inkscape:original-d="m 7.0158251,4.0896701 c 0.4097961,0.2494337 0.8185922,0.4998673 1.2263883,0.751301 0.4077961,0.2514336 1.6582815,-0.4724045 2.4859226,-0.7071068 0.82764,-0.2347022 0.413479,0.2494337 0.618718,0.3756505"
       transform="matrix(0.54528118,0,0,0.54528118,2.4822661,3.5621196)" />
    <path
       style="fill:none;stroke:#000000;stroke-width:0.09448819;stroke-linecap:butt;stroke-linejoin:miter;stroke-miterlimit:4;stroke-dasharray:none;stroke-opacity:1"
       d="m 8.8940775,3.1836896 c -0.063787,0.00637 -0.1233091,0.046071 -0.153701,0.1025135 -0.030392,0.056442 -0.030771,0.1279876 -9.786e-4,0.1847486 0.022946,0.043718 0.06296,0.078186 0.1095931,0.094407 0.046633,0.01622 0.0994,0.014023 0.1445234,-0.00602"
       id="path1397"
       inkscape:connector-curvature="0"
       inkscape:path-effect="#path-effect1399"
       inkscape:original-d="m 8.8940775,3.1836896 c -0.05056,0.094754 -0.1021197,0.1905081 -0.1546796,0.2872621 -0.05256,0.096754 0.170411,0.057926 0.2541165,0.088388"
       transform="matrix(0.54528118,0,0,0.54528118,2.4822661,3.5621196)" />
    <text
       xml:space="preserve"
       style="font-style:normal;font-weight:normal;font-size:0.69986212px;line-height:1.25;font-family:sans-serif;letter-spacing:0px;word-spacing:0px;fill:#000000;fill-opacity:1;stroke:none;stroke-width:0.01749656"
       x="4.9225636"
       y="8.1365852"
       id="text1427"><tspan
         sodipodi:role="line"
         id="tspan1425"
         x="4.9225636"
         y="8.1365852"
         style="stroke-width:0.01749656">Vacummator</tspan></text>
    <path
       style="fill:none;stroke:#000000;stroke-width:0.2;stroke-linecap:butt;stroke-linejoin:miter;stroke-opacity:1;stroke-miterlimit:4;stroke-dasharray:none"
       d="m 5.4882813,9.9648437 0.054687,-0.1328125 0.609375,-0.5703125 0.4921875,0.703125 -1.328125,1.1015623 1.484375,0.07031"
       id="path1433"
       inkscape:connector-curvature="0" />
    <path
       style="fill:none;stroke:#000000;stroke-width:0.1;stroke-linecap:butt;stroke-linejoin:miter;stroke-miterlimit:4;stroke-dasharray:none;stroke-opacity:1"
       d="m 6.9179688,10.988281 0.390625,-0.21875 0.1171875,0.335937 -0.421875,0.117188 z"
       id="path1435"
       inkscape:connector-curvature="0" />
    <path
       style="fill:none;stroke:#000000;stroke-width:0.2;stroke-linecap:butt;stroke-linejoin:miter;stroke-miterlimit:4;stroke-dasharray:none;stroke-opacity:1"
       d="m 8.3080202,9.069502 -0.6171875,0.34375 -0.1640625,0.6875 0.078125,0.726563 0.3828125,0.5 0.65625,-0.257813 0.359375,-0.90625 -0.15625,-0.734375 z"
       id="path1439"
       inkscape:connector-curvature="0" />
    <path
       style="opacity:1;fill:#ff0404;fill-opacity:1;stroke:#e9b473;stroke-width:0.003125;stroke-linecap:butt;stroke-linejoin:bevel;stroke-miterlimit:4;stroke-dasharray:none;stroke-dashoffset:0;stroke-opacity:1;paint-order:markers fill stroke"
       d="m 6.988806,11.648543 c -1.0097656,-0.0071 -2.0166019,-0.01817 -2.2374139,-0.02461 l -0.4014765,-0.0117 0.5924806,-1.09375 C 5.2682604,9.9169235 5.5348084,9.4106735 5.5347248,9.393486 5.5345685,9.3617823 5.451052,9.0455743 5.4400885,9.0351855 5.4368049,9.0320743 4.9858764,8.7537933 4.4380248,8.4167835 3.8901732,8.0797738 3.441931,7.7987735 3.441931,7.7923383 c 0,-0.00643 0.4500309,-0.2876167 1.0000687,-0.6248481 0.5500377,-0.3372314 1.0029282,-0.6177748 1.0064232,-0.6234298 0.00349,-0.00565 0.00874,-0.1118566 0.01165,-0.2360038 l 0.0053,-0.225722 L 5.082556,5.7786812 C 4.8720092,5.6116719 4.7005355,5.4665775 4.7015035,5.4562492 4.7028581,5.4417963 5.139111,4.8464239 5.1916399,4.7873399 c 0.00606,-0.00682 0.23888,-0.091616 0.5173747,-0.1884405 L 6.2153685,4.4228549 7.457556,4.4764585 8.6997435,4.530062 9.2114623,4.8048744 9.723181,5.0796868 9.722017,5.1584614 C 9.7213764,5.2017874 9.712407,5.3337452 9.702084,5.451701 9.687645,5.6166767 9.677371,5.6707603 9.657557,5.686076 9.643391,5.697026 9.5187669,5.8008685 9.3806152,5.916836 9.1570928,6.1044655 9.1295055,6.1328579 9.1301122,6.1746485 c 9.531e-4,0.065657 0.040783,0.4141386 0.048042,0.4203302 0.00328,0.0028 0.2836984,0.1546734 0.6231515,0.3375011 0.3394533,0.1828276 0.6437633,0.3479621 0.6762453,0.3669654 l 0.05906,0.034552 -0.6045437,0.615682 C 9.5995659,8.288304 9.2618631,8.6322777 9.181614,8.7140648 9.0435189,8.8548069 9.0340331,8.8688087 9.0044437,8.9755857 c -0.017195,0.06205 -0.031263,0.1297034 -0.031263,0.1503422 0,0.029537 0.6356589,2.4441501 0.6637881,2.5214641 0.00559,0.01535 -0.080539,0.01895 -0.4025596,0.01679 -0.2253157,-0.0015 -1.2358372,-0.0085 -2.2456029,-0.01564 z M 8.33782,11.306244 c 0.1990579,-0.07806 0.3702892,-0.150132 0.3805139,-0.160156 0.010225,-0.01003 0.1036504,-0.232604 0.2076128,-0.49462 L 9.1149693,10.175075 9.0508309,9.8702179 C 9.0155548,9.7025466 8.9763826,9.5193296 8.9637818,9.4630688 L 8.9408712,9.3607766 8.6277932,9.1517607 C 8.3185064,8.9452757 8.3142084,8.943036 8.2728543,8.966799 8.2498309,8.9800288 8.0889518,9.0695591 7.9153454,9.1657549 7.7417389,9.2619508 7.5961187,9.3525432 7.5917448,9.3670713 7.5543159,9.4913968 7.426306,10.072254 7.426306,10.117767 c 0,0.03191 0.017079,0.214047 0.037954,0.404742 l 0.037954,0.346719 0.2206538,0.289473 c 0.1213595,0.15921 0.227938,0.289473 0.2368409,0.289473 0.0089,0 0.1790528,-0.06387 0.3781113,-0.14193 z m -1.0872952,-0.09209 c 0.1310547,-0.03659 0.2383634,-0.07449 0.2384639,-0.08422 3.709e-4,-0.03596 -0.1453916,-0.431762 -0.1590067,-0.431762 -0.012349,0 -0.352478,0.186163 -0.4459583,0.244087 l -0.03447,0.02136 0.057907,0.164834 c 0.04299,0.122371 0.063945,0.163209 0.081345,0.158529 0.012891,-0.0035 0.1306641,-0.03624 0.2617188,-0.07282 z m -0.4429272,-0.07264 c 0.00583,-0.05694 0.00856,-0.105559 0.00606,-0.108039 -0.0025,-0.0025 -0.2771053,-0.01696 -0.6102372,-0.03218 -0.3331317,-0.01522 -0.6003192,-0.03244 -0.59375,-0.03827 0.00657,-0.0058 0.2650692,-0.219861 0.5744442,-0.475632 0.309375,-0.25577 0.5721461,-0.474047 0.5839357,-0.485061 C 6.7859484,9.9856194 6.7386024,9.9096677 6.4814857,9.5426262 6.207789,9.151916 6.1705932,9.1051993 6.1475501,9.1232137 c -0.014262,0.01115 -0.1778616,0.1625387 -0.3635537,0.33642 -0.280305,0.2624761 -0.3422836,0.3283534 -0.36508,0.388045 -0.015377,0.040264 -0.02151,0.077697 -0.01394,0.085079 0.00743,0.00725 0.050716,0.027756 0.096181,0.04557 l 0.082663,0.032389 0.026712,-0.05933 C 5.6275299,9.9136312 5.7273389,9.8072901 5.8850028,9.6589513 6.1209126,9.4369948 6.1338537,9.4273143 6.155591,9.4565412 c 0.1188474,0.1597964 0.3344175,0.4799037 0.3304386,0.4906795 -0.00277,0.0075 -0.3249579,0.2787663 -0.7159736,0.6028103 -0.3910156,0.324044 -0.7132812,0.595408 -0.7161457,0.603032 -0.00286,0.0076 0.04987,0.01447 0.1171875,0.0152 0.067318,7.39e-4 0.4317707,0.0173 0.8098957,0.0368 0.378125,0.0195 0.7164119,0.03647 0.7517486,0.03772 l 0.064248,0.0023 z M 5.2993792,7.9000633 c 0.052622,-0.1381793 0.095677,-0.2577106 0.095677,-0.265625 0,-0.00791 -0.017057,-0.01439 -0.037905,-0.01439 -0.033651,0 -0.044819,0.017974 -0.099513,0.1601563 -0.033884,0.088086 -0.066519,0.1759765 -0.072523,0.1953125 -0.006,0.019336 -0.01582,0.035156 -0.021816,0.035156 -0.006,0 -0.043048,-0.086133 -0.082339,-0.1914062 -0.065,-0.1741563 -0.075188,-0.1918519 -0.1130462,-0.1963504 -0.022885,-0.00272 -0.041608,7.244e-4 -0.041608,0.00765 0,0.02097 0.1759214,0.4802105 0.1919939,0.5011977 0.00823,0.010742 0.030807,0.019531 0.05018,0.019531 0.031119,0 0.046368,-0.029267 0.1308994,-0.2512352 z m 0.3109501,0.2269118 c 0.031621,-0.022148 0.034727,-0.022051 0.034727,0.00109 0,0.017414 0.011063,0.023839 0.035156,0.020417 0.032084,-0.00456 0.035576,-0.01455 0.039965,-0.114368 0.00973,-0.2213615 -0.031182,-0.2890625 -0.1746959,-0.2890625 -0.1095902,0 -0.1348007,0.010468 -0.1348007,0.055973 0,0.033265 0.00405,0.035464 0.04008,0.021766 0.060533,-0.023015 0.1337385,-0.018323 0.1657213,0.010621 0.015716,0.014222 0.028574,0.030824 0.028574,0.036892 0,0.00607 -0.043866,0.015011 -0.097479,0.019872 -0.079715,0.00723 -0.1039184,0.016325 -0.1328125,0.049916 -0.076143,0.088522 -0.017412,0.2112105 0.1011049,0.2112105 0.032853,0 0.075361,-0.010946 0.09446,-0.024323 z m 0.4888789,0.00815 c 0.039544,-0.021163 0.042193,-0.085652 0.00288,-0.070105 -0.071497,0.028275 -0.1217803,0.02607 -0.1640674,-0.00719 -0.036483,-0.028698 -0.042964,-0.045409 -0.042964,-0.1107863 0,-0.1212442 0.075394,-0.1694589 0.1942954,-0.1242526 0.03603,0.013699 0.04008,0.011499 0.04008,-0.021766 0,-0.043987 -0.025534,-0.055973 -0.1192414,-0.055973 -0.1344281,0 -0.2023234,0.073453 -0.1994103,0.215733 0.00151,0.073919 0.040404,0.139404 0.101408,0.1707554 0.045931,0.023605 0.14603,0.025525 0.1870209,0.00359 z m 0.3392461,-0.00815 c 0.031621,-0.022148 0.034727,-0.022051 0.034727,0.00109 0,0.017414 0.011063,0.023839 0.035156,0.020417 0.03409,-0.00484 0.035289,-0.011032 0.039529,-0.2042117 l 0.00437,-0.1992188 h -0.039529 c -0.039205,0 -0.039529,0.0011 -0.039529,0.1335227 0,0.1209315 -0.00362,0.1371394 -0.038352,0.171875 -0.043942,0.043942 -0.068185,0.047478 -0.111005,0.016191 C 6.2982212,8.047929 6.2926496,8.021138 6.288079,7.8947612 6.2827224,7.7466505 6.2822437,7.7450485 6.2433381,7.7450485 h -0.039326 l 0.00614,0.1658105 c 0.00586,0.1584203 0.00807,0.1674737 0.049519,0.203125 0.050458,0.043402 0.1273872,0.048992 0.1787862,0.012991 z M 6.738806,8.0106735 c 0,-0.1554059 0.023731,-0.203125 0.1010129,-0.203125 0.056095,0 0.070862,0.042343 0.070862,0.2031845 0,0.1390883 8.985e-4,0.1426113 0.035156,0.137746 0.032836,-0.00466 0.035672,-0.014379 0.042969,-0.1472155 0.0083,-0.1510402 0.026887,-0.1938864 0.083944,-0.1934758 0.070371,5.063e-4 0.079824,0.021239 0.085516,0.1875617 0.00517,0.1511879 0.00679,0.1575325 0.039063,0.1529341 0.030541,-0.00435 0.034109,-0.01567 0.038453,-0.121985 0.00597,-0.1460634 -0.00577,-0.2119198 -0.044723,-0.2508716 -0.040161,-0.040161 -0.1384967,-0.040343 -0.1893385,-3.5e-4 -0.037656,0.029621 -0.038429,0.029621 -0.056927,0 -0.021114,-0.033809 -0.1234114,-0.041872 -0.1757651,-0.013853 -0.020833,0.01115 -0.030223,0.01115 -0.030223,0 0,-0.0089 -0.017578,-0.016175 -0.039063,-0.016175 H 6.660681 v 0.1927083 c 0,0.1059897 0.00469,0.1973959 0.010417,0.203125 0.00573,0.00573 0.023307,0.010417 0.039063,0.010417 0.025656,0 0.028646,-0.014678 0.028646,-0.140625 z m 0.6842518,-0.00731 c 0.0051,-0.1565952 0.027055,-0.2007339 0.095821,-0.1926491 0.057604,0.00677 0.078808,0.063828 0.079072,0.2127638 2.235e-4,0.125814 0.00136,0.1298325 0.035387,0.125 0.033071,-0.0047 0.035427,-0.013306 0.03972,-0.1451147 0.00494,-0.151565 0.025206,-0.1958158 0.089694,-0.1958158 0.055879,0 0.06828,0.03196 0.073083,0.1883456 0.00429,0.1395694 0.00644,0.1478633 0.039689,0.1525849 0.034531,0.0049 0.035156,0.00209 0.035156,-0.1580491 0,-0.1412859 -0.00432,-0.1685356 -0.032384,-0.2042117 -0.041217,-0.052398 -0.1500267,-0.058707 -0.193028,-0.011191 -0.026747,0.029555 -0.027554,0.029555 -0.057109,0 -0.033094,-0.033094 -0.1221974,-0.04026 -0.1716309,-0.013804 -0.020833,0.01115 -0.030223,0.01115 -0.030223,0 0,-0.0089 -0.017578,-0.016175 -0.039063,-0.016175 H 7.348181 v 0.2042117 c 0,0.2028378 2.36e-4,0.2041781 0.035156,0.1992188 0.033071,-0.0047 0.035427,-0.013306 0.039721,-0.1451144 z m 0.8122715,0.1236108 c 0.031621,-0.022148 0.034727,-0.022051 0.034727,0.00109 0,0.017414 0.011063,0.023839 0.035156,0.020417 0.031331,-0.00445 0.035694,-0.015193 0.040103,-0.098743 0.012023,-0.2278464 -0.032069,-0.3046867 -0.1748339,-0.3046867 -0.1095902,0 -0.1348007,0.010468 -0.1348007,0.055973 0,0.033265 0.00405,0.035464 0.04008,0.021766 0.071184,-0.027064 0.1432577,-0.018638 0.1703689,0.019918 0.024698,0.035125 0.024634,0.035165 -0.072323,0.044763 -0.079329,0.00785 -0.1036448,0.017282 -0.1332095,0.051653 -0.076954,0.089464 -0.018961,0.2121781 0.1002719,0.2121781 0.032853,0 0.075361,-0.010946 0.09446,-0.024323 z M 8.660681,8.1131793 c 0,-0.03277 -0.00822,-0.0388 -0.058594,-0.042969 L 8.543493,8.0653603 8.538953,7.9364541 8.534413,7.8075478 h 0.063132 c 0.052715,0 0.063132,-0.00516 0.063132,-0.03125 0,-0.026042 -0.010417,-0.03125 -0.0625,-0.03125 -0.061012,0 -0.0625,-0.0013 -0.0625,-0.054687 0,-0.047917 -0.00484,-0.054687 -0.039063,-0.054687 -0.034226,0 -0.039063,0.00677 -0.039063,0.054687 0,0.038194 -0.00707,0.054687 -0.023437,0.054687 -0.013021,0 -0.023437,0.013889 -0.023437,0.03125 0,0.017361 0.010417,0.03125 0.023437,0.03125 0.018946,0 0.023437,0.024787 0.023437,0.1293358 0,0.1772022 0.019804,0.2022065 0.1679688,0.2120731 0.027491,0.00183 0.035156,-0.00597 0.035156,-0.035778 z m 0.345511,-0.00578 C 9.045999,8.0718313 9.056784,8.0482753 9.063033,7.9832466 9.072953,7.8800499 9.061643,7.8377665 9.01043,7.7865557 8.976088,7.7522137 8.954816,7.7450457 8.8872442,7.7450457 c -0.067222,0 -0.088899,0.00722 -0.1224898,0.040814 C 8.7178278,7.8327882 8.699906,7.906184 8.7124792,7.9999444 8.731539,8.1420757 8.898869,8.2032948 9.006192,8.1074018 Z M 9.238806,7.9976446 c 0.00868,-0.1620061 0.030439,-0.1977313 0.1132813,-0.1859791 0.03631,0.00515 0.042969,4.625e-4 0.042969,-0.030261 0,-0.030153 -0.00817,-0.036356 -0.047902,-0.036356 -0.026346,0 -0.061502,0.00728 -0.078125,0.016175 -0.020833,0.01115 -0.030223,0.01115 -0.030223,0 0,-0.0089 -0.017578,-0.016175 -0.039063,-0.016175 H 9.160681 v 0.2042117 c 0,0.2028378 2.36e-4,0.2041781 0.035156,0.1992188 C 9.228764,8.143799 9.231489,8.134237 9.238806,7.9976446 Z M 7.2645676,6.1779207 c 0.061434,-0.02162 0.2231533,-0.09206 0.359375,-0.1565325 0.337973,-0.1599603 0.386787,-0.1747772 0.5758009,-0.1747772 0.1381647,0 0.1662022,0.00489 0.2422327,0.042229 0.04729,0.023226 0.1127825,0.066777 0.145538,0.09678 0.057638,0.052795 0.1044168,0.060239 0.1044168,0.016616 0,-0.031562 -0.1238212,-0.126195 -0.2276542,-0.1739894 C 8.3909146,5.7944773 8.3421196,5.7842653 8.229967,5.7792091 8.0374332,5.770529 7.9114784,5.807107 7.5675885,5.9715676 7.2264764,6.1346998 7.0926362,6.1739069 6.9147537,6.1628093 6.8099464,6.1562705 6.7639892,6.1444666 6.6705221,6.1000793 6.5459503,6.0409204 6.3990024,5.908145 6.3636546,5.8228078 6.3426254,5.772039 6.2977623,5.7641671 6.2889921,5.8097072 c -0.00832,0.043189 0.1388999,0.218518 0.2430977,0.2895185 0.1499495,0.1021758 0.2583828,0.13166 0.4567162,0.1241864 0.1234119,-0.00465 0.1917388,-0.015922 0.2757616,-0.045491 z M 8.4203075,5.6370311 C 8.5592451,5.5739369 8.6200937,5.4111336 8.553515,5.2806284 8.4989454,5.1736633 8.3654837,5.1178824 8.2556046,5.1561155 c -0.059006,0.020532 -0.070618,0.038071 -0.048445,0.073177 0.011723,0.018562 0.01867,0.019357 0.034121,0.00391 0.026373,-0.026373 0.1298671,-0.024487 0.1836946,0.00335 0.060478,0.031275 0.1009621,0.1206908 0.087392,0.1930231 -0.012945,0.069001 -0.094883,0.1508358 -0.165086,0.1648763 -0.1106969,0.022139 -0.2324733,-0.043876 -0.2819703,-0.152858 -0.076954,-0.1694363 0.00703,-0.3700219 0.1813019,-0.4330411 0.055812,-0.020182 0.078399,-0.075999 0.030754,-0.075999 -0.045182,0 -0.1401621,0.048496 -0.1928124,0.098448 -0.1538909,0.1460053 -0.1501239,0.4288049 0.00739,0.5544851 0.1039733,0.082962 0.2193192,0.10107 0.3283671,0.051549 z M 6.603597,5.502951 C 6.7246928,5.4454873 6.7929257,5.2906976 6.7567626,5.1554877 6.7306706,5.0579324 6.676841,4.9900341 6.5936726,4.949773 6.4828628,4.8961308 6.289342,4.9163604 6.3059449,4.9798505 c 0.0046,0.017572 -0.00834,0.039235 -0.035358,0.05921 -0.1023173,0.075647 -0.1253004,0.2447069 -0.049513,0.3642112 0.039594,0.062434 0.07692,0.090009 0.1739823,0.1285318 0.039146,0.015537 0.1462147,7.233e-4 0.2085408,-0.028852 z m 0.791459,0.00772 c 0,-0.022672 -0.010417,-0.03125 -0.037946,-0.03125 -0.082065,0 -0.1155968,-0.089952 -0.049641,-0.1331682 0.045591,-0.029872 0.039564,-0.086442 -0.00789,-0.074033 -0.088603,0.02317 -0.121228,0.1637942 -0.053673,0.231349 0.050273,0.050273 0.1491476,0.054982 0.1491476,0.0071 z"
       id="path1453"
       inkscape:connector-curvature="0" />
    <path
       style="opacity:1;fill:#ff0404;fill-opacity:1;stroke:#e9b473;stroke-width:0.003125;stroke-linecap:butt;stroke-linejoin:bevel;stroke-miterlimit:4;stroke-dasharray:none;stroke-dashoffset:0;stroke-opacity:1;paint-order:markers fill stroke"
       d="M 6.3999816,5.4615847 C 6.3726125,5.4540076 6.3289345,5.4265231 6.3029193,5.4005079 6.1818574,5.279446 6.2511813,5.0575485 6.4100646,5.0575485 c 0.1193379,0 0.1717447,0.1368353 0.078741,0.2055956 -0.048593,0.035926 -0.063532,0.091279 -0.024636,0.091279 0.038225,0 0.1175837,-0.078476 0.1307533,-0.129299 0.027429,-0.1058503 -0.014138,-0.1865257 -0.1145277,-0.2222816 -0.049486,-0.017626 -0.054067,-0.022117 -0.022839,-0.02239 0.069303,-6.08e-4 0.164939,0.054372 0.2037152,0.1171134 0.1153401,0.1866242 -0.053319,0.4215944 -0.2612898,0.3640188 z"
       id="path1455"
       inkscape:connector-curvature="0" />
    <path
       style="opacity:1;fill:#2e04ff;fill-opacity:1;stroke:#e9b473;stroke-width:0.003125;stroke-linecap:butt;stroke-linejoin:bevel;stroke-miterlimit:4;stroke-dasharray:none;stroke-dashoffset:0;stroke-opacity:1;paint-order:markers fill stroke"
       d="M 7.8658738,10.989952 7.7085652,10.783339 7.6767822,10.494662 c -0.017481,-0.158772 -0.032662,-0.316801 -0.033735,-0.351176 -0.00161,-0.05151 0.059513,-0.3394926 0.128135,-0.6037241 0.013902,-0.053529 0.029911,-0.065243 0.27411,-0.200559 l 0.259346,-0.1437099 0.2236252,0.1489899 0.2236253,0.1489899 0.018715,0.090632 c 0.010293,0.049847 0.041813,0.1979973 0.070044,0.329222 l 0.051328,0.2385902 -0.1664284,0.417052 -0.1664284,0.417052 -0.18686,0.07493 c -0.102773,0.04121 -0.2233587,0.08858 -0.2679681,0.105272 l -0.081108,0.03035 z"
       id="path1457"
       inkscape:connector-curvature="0" />
  </g>
</svg>
